# xmcd
#
# Track frame offsets:
#	150
#	12123
#	24549
#	35208
#	50503
#	67966
#	79423
#	91918
#	102544
#	116020
#	130481
#	143030
#	161423
#	177595
#	191931
#
# Disc length: 2765 seconds
#
# Revision: 1
# Processed by: cddbd v1.5PL3 Copyright (c) Steve Scherf et al.
# Submitted via: audiograbber 1.83.01
#
DISCID=d70acb0f
DTITLE=Chantal Hamel - Country Girl
DYEAR=2003
DGENRE=Country
TTITLE0=Country girl
TTITLE1=Promettre
TTITLE2=Mon champion
TTITLE3=Il faut se dire adieu
TTITLE4=Les enfants au coeur brisé
TTITLE5=La star du country
TTITLE6=Dieu pardonne-moi
TTITLE7=L'histoire du mendiant
TTITLE8=Une valse pour toi
TTITLE9=L'amour n'est plus
TTITLE10=Une mauvaise journée
TTITLE11=Il m'aime moi aussi
TTITLE12=Ne perds pas la cadence
TTITLE13=Oh non jamais
TTITLE14=La valse des amoureux
EXTD=
EXTT0=
EXTT1=
EXTT2=
EXTT3=
EXTT4=
EXTT5=
EXTT6=
EXTT7=
EXTT8=
EXTT9=
EXTT10=
EXTT11=
EXTT12=
EXTT13=
EXTT14=
PLAYORDER=
